<svg width="24" height="24" viewBox="0 0 24 24" fill="none" xmlns="http://www.w3.org/2000/svg">
<path fill-rule="evenodd" clip-rule="evenodd" d="M4.96578 5.03367C6.97033 4.83122 8.97512 4.72998 10.9801 4.72998C14.3454 4.72998 17.7201 4.90127 21.074 5.23364C21.4862 5.27448 21.7872 5.64175 21.7464 6.05394C21.7055 6.46614 21.3383 6.76717 20.9261 6.72632C17.62 6.39869 14.2947 6.22998 10.9801 6.22998C9.02535 6.22998 7.07051 6.3287 5.11543 6.52618L5.11323 6.5264L3.07323 6.7264C2.661 6.76682 2.29405 6.4654 2.25363 6.05316C2.21322 5.64092 2.51464 5.27397 2.92688 5.23356L4.96578 5.03367Z" fill="black"/>
<path fill-rule="evenodd" clip-rule="evenodd" d="M9.4597 3.78456L9.23976 5.09421C9.17116 5.50271 8.7844 5.77824 8.3759 5.70964C7.96741 5.64104 7.69187 5.25428 7.76048 4.84578L7.98048 3.53579C7.98432 3.51297 7.98828 3.48908 7.99228 3.46487C8.06114 3.04899 8.16216 2.43887 8.56885 1.97769C9.04291 1.44012 9.76621 1.25 10.6901 1.25H13.3101C14.2453 1.25 14.9678 1.4554 15.4391 1.99845C15.8463 2.46776 15.9448 3.08006 16.0106 3.48891C16.0138 3.5088 16.0169 3.52822 16.02 3.54711L16.2396 4.84486C16.3087 5.25326 16.0337 5.64037 15.6253 5.70949C15.2169 5.7786 14.8297 5.50355 14.7606 5.09514L14.5399 3.79069C14.4562 3.27767 14.4033 3.09352 14.3062 2.98155C14.2524 2.9196 14.065 2.75 13.3101 2.75H10.6901C9.92402 2.75 9.74232 2.91488 9.69389 2.96981C9.60177 3.07427 9.54978 3.24976 9.4597 3.78456Z" fill="black"/>
<path fill-rule="evenodd" clip-rule="evenodd" d="M18.8982 8.3916C19.3116 8.41828 19.6251 8.775 19.5984 9.18835L18.9481 19.2625L18.9468 19.2815C18.9204 19.6577 18.8914 20.0714 18.8139 20.4564C18.7335 20.8556 18.5918 21.2768 18.3047 21.6506C17.7036 22.4333 16.6805 22.75 15.2099 22.75H8.78993C7.31937 22.75 6.2963 22.4333 5.69513 21.6506C5.40803 21.2768 5.26633 20.8556 5.18594 20.4564C5.10841 20.0714 5.07944 19.6577 5.05309 19.2815L5.05148 19.2584L4.40149 9.18835C4.37481 8.775 4.68827 8.41828 5.10162 8.3916C5.51497 8.36492 5.87169 8.67838 5.89837 9.09173L6.5481 19.1576C6.54814 19.1583 6.54819 19.159 6.54824 19.1597C6.57646 19.5624 6.60035 19.8818 6.65642 20.1602C6.71102 20.4314 6.78683 20.6095 6.88473 20.7369C7.05356 20.9567 7.47049 21.25 8.78993 21.25H15.2099C16.5294 21.25 16.9463 20.9567 17.1151 20.7369C17.213 20.6095 17.2888 20.4314 17.3434 20.1602C17.3995 19.8818 17.4234 19.5624 17.4516 19.1597C17.4517 19.159 17.4517 19.1583 17.4518 19.1576L18.1015 9.09173C18.1282 8.67838 18.4849 8.36492 18.8982 8.3916Z" fill="black"/>
<path fill-rule="evenodd" clip-rule="evenodd" d="M9.58008 16.5C9.58008 16.0858 9.91586 15.75 10.3301 15.75H13.6601C14.0743 15.75 14.4101 16.0858 14.4101 16.5C14.4101 16.9142 14.0743 17.25 13.6601 17.25H10.3301C9.91586 17.25 9.58008 16.9142 9.58008 16.5Z" fill="black"/>
<path fill-rule="evenodd" clip-rule="evenodd" d="M8.75 12.5C8.75 12.0858 9.08579 11.75 9.5 11.75H14.5C14.9142 11.75 15.25 12.0858 15.25 12.5C15.25 12.9142 14.9142 13.25 14.5 13.25H9.5C9.08579 13.25 8.75 12.9142 8.75 12.5Z" fill="black"/>
</svg>
