<svg width="24" height="18" viewBox="0 0 24 18" fill="black" xmlns="http://www.w3.org/2000/svg">
<path d="M16.185 15.9575L13.764 13.67C12.8278 13.9861 11.8157 14.0446 10.8456 13.8388C9.87554 13.633 8.98729 13.1713 8.28423 12.5074C7.58117 11.8435 7.09221 11.0047 6.87424 10.0887C6.65628 9.17262 6.71827 8.21696 7.053 7.33289L3.963 4.41504C1.407 6.56093 0 9.00002 0 9.00002C0 9.00002 4.5 16.7904 12 16.7904C13.4406 16.7857 14.8649 16.5022 16.185 15.9575V15.9575ZM7.815 2.04252C9.13508 1.49779 10.5594 1.21434 12 1.20966C19.5 1.20966 24 9.00002 24 9.00002C24 9.00002 22.5915 11.4377 20.0385 13.5864L16.9455 10.6657C17.2802 9.78167 17.3422 8.82601 17.1243 7.90997C16.9063 6.99392 16.4173 6.15516 15.7143 5.49127C15.0112 4.82738 14.123 4.36566 13.1529 4.15984C12.1828 3.95402 11.1707 4.01255 10.2345 4.32864L7.815 2.04393V2.04252Z" fill=""/>
<path d="M8.28749 8.49858C8.20498 9.04293 8.25786 9.59795 8.44194 10.1196C8.62602 10.6413 8.93623 11.1154 9.34801 11.5042C9.75979 11.8931 10.2618 12.186 10.8143 12.3598C11.3668 12.5336 11.9545 12.5836 12.531 12.5057L8.28599 8.49858H8.28749ZM15.7125 9.50142L11.469 5.49292C12.0455 5.415 12.6332 5.46494 13.1857 5.63876C13.7382 5.81258 14.2402 6.10552 14.652 6.49435C15.0638 6.88319 15.374 7.35724 15.558 7.87894C15.7421 8.40064 15.795 8.95565 15.7125 9.5V9.50142ZM20.469 18L2.46899 1.00283L3.53099 0L21.531 16.9972L20.469 18Z" fill=""/>
</svg>
