<svg width="24" height="17" viewBox="0 0 24 18" fill="black" xmlns="http://www.w3.org/2000/svg">
<path d="M15.75 8.43751C15.75 9.40193 15.3549 10.3269 14.6517 11.0088C13.9484 11.6908 12.9946 12.0739 12 12.0739C11.0054 12.0739 10.0516 11.6908 9.34835 11.0088C8.64509 10.3269 8.25 9.40193 8.25 8.43751C8.25 7.47309 8.64509 6.54816 9.34835 5.86621C10.0516 5.18426 11.0054 4.80115 12 4.80115C12.9946 4.80115 13.9484 5.18426 14.6517 5.86621C15.3549 6.54816 15.75 7.47309 15.75 8.43751V8.43751Z" fill=""/>
<path d="M0 8.4375C0 8.4375 4.5 0.4375 12 0.4375C19.5 0.4375 24 8.4375 24 8.4375C24 8.4375 19.5 16.4375 12 16.4375C4.5 16.4375 0 8.4375 0 8.4375ZM12 13.5284C13.3924 13.5284 14.7277 12.992 15.7123 12.0373C16.6969 11.0826 17.25 9.78769 17.25 8.4375C17.25 7.08731 16.6969 5.79241 15.7123 4.83768C14.7277 3.88295 13.3924 3.34659 12 3.34659C10.6076 3.34659 9.27226 3.88295 8.28769 4.83768C7.30312 5.79241 6.75 7.08731 6.75 8.4375C6.75 9.78769 7.30312 11.0826 8.28769 12.0373C9.27226 12.992 10.6076 13.5284 12 13.5284V13.5284Z" fill=""/>
</svg>
